<?xml version="1.0" encoding="UTF-8"?>
<svg id="Layer_2" data-name="Layer 2" xmlns="http://www.w3.org/2000/svg" viewBox="0 0 50.35 50.41">
  <defs>
    <style>
      .cls-1 {
        fill: #fff;
      }
    </style>
  </defs>
  <g id="Nav_Bar">
    <path class="cls-1" d="m0,25.18C-.26,11.4,11.24-.1,25.2,0c14.16.1,25.06,11.22,25.15,25.23.09,13.81-11.29,25.11-25.21,25.18C11.59,50.47-.36,38.94,0,25.18Zm11.64-6.96c0,.32-.04.64,0,.95.32,2.33,1.2,4.45,2.47,6.4,1.67,2.57,3.68,4.85,5.93,6.93,1.66,1.54,3.39,2.99,5.35,4.1,2.39,1.36,4.88,2.44,7.76,2,2.36-.37,4.18-1.48,5.19-3.71.46-1.02.28-2.55-.38-3.12-1.2-1.03-2.41-2.03-3.62-3.04-.79-.66-1.66-.74-2.6-.36-1.54.63-2.69,1.76-3.74,3-.3.36-.52.43-.93.18-1.2-.73-2.28-1.63-3.29-2.6-1.18-1.13-2.37-2.26-3.41-3.52-.63-.76-1.27-1.52-1.73-2.4-.08-.16-.25-.26,0-.48.58-.5,1.11-1.06,1.67-1.6.68-.66,1.19-1.42,1.59-2.28.43-.92.43-1.8-.23-2.61-.84-1.03-1.71-2.02-2.55-3.05-.38-.47-.72-.97-1.35-1.13-1.14-.28-2.24-.19-3.22.48-2.04,1.41-2.85,3.45-2.91,5.85Z"/>
  </g>
</svg>